/* XPM */
static char * close_pressed_xpm[] = {
"20 24 46 1",
" 	c None",
".	c #372F36",
"+	c #7F5D7A",
"@	c #72566E",
"#	c #71556D",
"$	c #5D495A",
"%	c #805E7C",
"&	c #6F556C",
"*	c #574554",
"=	c #634D60",
"-	c #624C5F",
";	c #6E546B",
">	c #473B45",
",	c #493D47",
"'	c #574755",
")	c #564854",
"!	c #755B71",
"~	c #7D5D79",
"{	c #6D5369",
"]	c #FFFBFE",
"^	c #4B3F49",
"/	c #7B5B77",
"(	c #604C5E",
"_	c #4A3E48",
":	c #795B75",
"<	c #6C5268",
"[	c #604C5D",
"}	c #775973",
"|	c #6B5368",
"1	c #755971",
"2	c #695166",
"3	c #5F4B5C",
"4	c #564654",
"5	c #745870",
"6	c #685065",
"7	c #72586F",
"8	c #665063",
"9	c #70566D",
"0	c #5E4A5B",
"a	c #554552",
"b	c #735B70",
"c	c #6C5469",
"d	c #654F62",
"e	c #644E61",
"f	c #6A5267",
"g	c #614D5F",
"....................",
"++++++++++++++++++++",
"@@@@@@@@@@@@@@@@@@@@",
"@@@..............@@@",
"##.$$$$$$$$$$$$$$.%#",
"&.*===============.%",
"&.*---------------.+",
";.*--->,'--',)!---.~",
"{.*-->]]^''^]])---./",
"{.*((_]]]^^]]]_(((.:",
"<.*[['^]]]]]]^'[[[.}",
"|.*((('^]]]]^'((((.1",
"2.*3334^]]]]^43333.5",
"6.*334^]]]]]]^4333.7",
"8.*33_]]]^^]]]_333.9",
"8.*33>]]^44^]])333.&",
"8.*000>,a00a,)b000.c",
"d.*000000000000000.|",
"e.*$$$$$$$$$$$$$$$.f",
"==.$$$$$$$$$$$$$$.f=",
"==2..............2==",
"===22222222222222===",
"gggggggggggggggggggg",
">>>>>>>>>>>>>>>>>>>>"};
