/* XPM */
static char * top_right_active_xpm[] = {
"5 24 21 1",
" 	c None",
".	c #4A3E49",
"+	c #3B333A",
"@	c #7C5C78",
"#	c #72566E",
"$	c #665063",
"%	c #71556D",
"&	c #6F556C",
"*	c #634D60",
"=	c #372F36",
"-	c #6E546B",
";	c #6D5369",
">	c #6C5268",
",	c #6B5368",
"'	c #695166",
")	c #685065",
"!	c #654F62",
"~	c #644E61",
"{	c #614D5F",
"]	c #473B45",
"^	c #383838",
"     ",
".+   ",
"@@+  ",
"##$+ ",
"%%$. ",
"&&&*=",
"&&&*=",
"---*=",
";;;*=",
";;;*=",
">>>*=",
",,,*=",
"'''*=",
")))*=",
"$$$*=",
"$$$*=",
"$$$*=",
"!!!*=",
"~~~*=",
"****=",
"****=",
"****=",
"{{{*=",
"]]]]^"};
