/* XPM */
static char * close_active_xpm[] = {
"20 24 44 1",
" 	c None",
".	c #372F36",
"+	c #7F5D7A",
"@	c #72566E",
"#	c #695166",
"$	c #665063",
"%	c #685065",
"&	c #5E4A5B",
"*	c #3B333A",
"=	c #5D495A",
"-	c #6C5268",
";	c #644E61",
">	c #745871",
",	c #735770",
"'	c #654F62",
")	c #473B45",
"!	c #493D47",
"~	c #624E5F",
"{	c #564854",
"]	c #7E607A",
"^	c #FFFBFE",
"/	c #4C404A",
"(	c #614D5E",
"_	c #71556C",
":	c #4A3E48",
"<	c #4B3F49",
"[	c #6F556C",
"}	c #6E546B",
"|	c #5F4D5D",
"1	c #5C4A5A",
"2	c #6A5267",
"3	c #5B4958",
"4	c #6B5368",
"5	c #5A4857",
"6	c #765C73",
"7	c #6C5469",
"8	c #624C5F",
"9	c #6D5369",
"0	c #6B5167",
"a	c #574554",
"b	c #5F4B5C",
"c	c #634D60",
"d	c #71556D",
"e	c #614D5F",
"....................",
"++++++++++++++++++++",
"@@#$$$$$$$$$$$$$$#@@",
"@%&**************&%@",
"%=*-++++++++++++-*=%",
";*#>>>>>>>>>>>>>>=*;",
";*>,,,,,,,,,,,,,,#*;",
"'*>@@@)!~@@~!{]@@#*'",
"$*>@@)^^/((/^^{@@#*$",
"$*>__:^^^<<^^^:__#*$",
"%*>[[(/^^^^^^/([[#*%",
"%*>}}}|<^^^^<|}}}#*%",
"#*>###1<^^^^<1####*#",
"2*>$$3/^^^^^^/3$$#*2",
"2*>$$:^^^<<^^^:$$#*2",
"4*>'')^^/55/^^{''#*4",
"4*>;;;)!5;;5!{6;;#*4",
"7*>88888888888888#*7",
"9*#88888888888888=*9",
"0-*abbbbbbbbbbbba*-0",
"c#-**************-#c",
"cc-dddddddddddddd-cc",
"eeeeeeeeeeeeeeeeeeee",
"))))))))))))))))))))"};
