/* XPM */
static char * devuan_xpm[] = {
"22 22 89 1",
" 	c None",
".	c #454252",
"+	c #494656",
"@	c #474453",
"#	c #413E4E",
"$	c #444151",
"%	c #4D4A5A",
"&	c #64616E",
"*	c #73717D",
"=	c #6F6C79",
"-	c #5F5D6A",
";	c #514E5D",
">	c #474454",
",	c #434050",
"'	c #5B5866",
")	c #888691",
"!	c #AFADB4",
"~	c #9B98A2",
"{	c #5E5B69",
"]	c #403D4D",
"^	c #423F4F",
"/	c #3F3C4D",
"(	c #6B6876",
"_	c #9F9CA5",
":	c #B8B6BD",
"<	c #9997A0",
"[	c #403C4D",
"}	c #413E4F",
"|	c #464353",
"1	c #94919B",
"2	c #D8D6DA",
"3	c #A9A7AF",
"4	c #545161",
"5	c #524F5E",
"6	c #DAD8DC",
"7	c #93909A",
"8	c #C3C1C7",
"9	c #E3E1E5",
"0	c #7A7783",
"a	c #DEDCE0",
"b	c #E1DFE2",
"c	c #8D8B95",
"d	c #3D3A4B",
"e	c #CAC8CD",
"f	c #444152",
"g	c #7D7B87",
"h	c #DFDDE2",
"i	c #DDDBDF",
"j	c #A6A4AC",
"k	c #4C4959",
"l	c #ABA9B1",
"m	c #DFDDE0",
"n	c #CAC7CD",
"o	c #484555",
"p	c #403D4E",
"q	c #605D6C",
"r	c #A19FA8",
"s	c #D4D2D7",
"t	c #E0DEE2",
"u	c #E1DFE3",
"v	c #B9B6BD",
"w	c #545160",
"x	c #585564",
"y	c #82808B",
"z	c #BEBBC2",
"A	c #D6D4D9",
"B	c #94929C",
"C	c #74717E",
"D	c #CCCACF",
"E	c #DBD9DD",
"F	c #DFDDE1",
"G	c #9E9CA5",
"H	c #9A97A0",
"I	c #E2E0E3",
"J	c #CFCDD2",
"K	c #9A98A1",
"L	c #595665",
"M	c #4D4A59",
"N	c #DEDCDF",
"O	c #C4C2C8",
"P	c #807D89",
"Q	c #423E4F",
"R	c #B1AFB7",
"S	c #E5E3E6",
"T	c #8A8792",
"U	c #595664",
"V	c #444051",
"W	c #6C6976",
"X	c #5F5C6B",
"        ......        ",
"      ..........      ",
"    +@##$.........    ",
"   .%&*=-;>,$......   ",
"  .....+')!~{]^.....  ",
"  ......$/.(_:<'[$..  ",
" ...........}|1234$.. ",
" .............,5:67#. ",
"................@893$.",
"................#0abc^",
"................d_aae.",
"..............f^ghibj^",
".............,klmiano.",
"..........p/qrstiuvw$.",
" ....f,$>xyzbtiaAB^.. ",
" ...^%CjDEiaiFiG;$... ",
"  ..H6IuaiauJKL/....  ",
"  .M2iiNaEOP.Q......  ",
"   |RSuOTU|,.......   ",
"    VWX#/.........    ",
"      ..........      ",
"        ......        "};
