/* XPM */
static char * hide_pressed_xpm[] = {
"20 24 37 1",
" 	c None",
".	c #372F36",
"+	c #7F5D7A",
"@	c #72566E",
"#	c #71556D",
"$	c #5D495A",
"%	c #805E7C",
"&	c #6F556C",
"*	c #574554",
"=	c #634D60",
"-	c #624C5F",
";	c #6E546B",
">	c #7D5D79",
",	c #6D5369",
"'	c #7B5B77",
")	c #604C5E",
"!	c #795B75",
"~	c #6C5268",
"{	c #604C5D",
"]	c #775973",
"^	c #6B5368",
"/	c #755971",
"(	c #695166",
"_	c #5F4B5C",
":	c #745870",
"<	c #685065",
"[	c #473B45",
"}	c #72586F",
"|	c #665063",
"1	c #FFFBFE",
"2	c #70566D",
"3	c #5E4A5B",
"4	c #6C5469",
"5	c #654F62",
"6	c #644E61",
"7	c #6A5267",
"8	c #614D5F",
"....................",
"++++++++++++++++++++",
"@@@@@@@@@@@@@@@@@@@@",
"@@@..............@@@",
"##.$$$$$$$$$$$$$$.%#",
"&.*===============.%",
"&.*---------------.+",
";.*---------------.>",
",.*---------------.'",
",.*))))))))))))))).!",
"~.*{{{{{{{{{{{{{{{.]",
"^.*)))))))))))))))./",
"(.*_______________.:",
"<.*__[[[[[[[[[[___.}",
"|.*__[11111111[___.2",
"|.*__[11111111[___.&",
"|.*33[[[[[[[[[[333.4",
"5.*333333333333333.^",
"6.*$$$$$$$$$$$$$$$.7",
"==.$$$$$$$$$$$$$$.7=",
"==(..............(==",
"===((((((((((((((===",
"88888888888888888888",
"[[[[[[[[[[[[[[[[[[[["};
