/* XPM */
static char * maximize_toggled_active_xpm[] = {
"20 24 31 1",
" 	c None",
".	c #372F36",
"+	c #72566E",
"@	c #695166",
"#	c #665063",
"$	c #71556D",
"%	c #685065",
"&	c #5E4A5B",
"*	c #3B333A",
"=	c #5D495A",
"-	c #6C5268",
";	c #7F5D7A",
">	c #644E61",
",	c #745871",
"'	c #735770",
")	c #654F62",
"!	c #473B45",
"~	c #71556C",
"{	c #FFFBFE",
"]	c #6F556C",
"^	c #6E546B",
"/	c #6A5267",
"(	c #6B5368",
"_	c #6C5469",
":	c #624C5F",
"<	c #6D5369",
"[	c #6B5167",
"}	c #574554",
"|	c #5F4B5C",
"1	c #634D60",
"2	c #614D5F",
"....................",
"++++++++++++++++++++",
"++@##############@++",
"$%&**************&%$",
"%=*-;;;;;;;;;;;;-*=%",
">*@,,,,,,,,,,,,,,=*>",
">*,''''''''''''''@*>",
")*,++++++++++++++@*)",
"#*,+++!!!!!!!!+++@*#",
"#*,~~~!{{{{{{!~~~@*#",
"%*,]]]!{{{{{{!]]]@*%",
"%*,^^^!{!!!!{!^^^@*%",
"@*,@@@!{!@@!{!@@@@*@",
"/*,###!{!!!!{!###@*/",
"/*,###!{{{{{{!###@*/",
"(*,)))!!!!!!!!)))@*(",
"(*,>>>>>>>>>>>>>>@*(",
"_*,::::::::::::::@*_",
"<*@::::::::::::::=*<",
"[-*}||||||||||||}*-[",
"1@-**************-@1",
"11-$$$$$$$$$$$$$$-11",
"22222222222222222222",
"!!!!!!!!!!!!!!!!!!!!"};
