/* XPM */
static char * top_left_active_xpm[] = {
"5 24 22 1",
" 	c None",
".	c #3B333A",
"+	c #4A3E49",
"@	c #7F5D7A",
"#	c #72566E",
"$	c #71556D",
"%	c #372F36",
"&	c #745871",
"*	c #6F556C",
"=	c #6E546B",
"-	c #6D5369",
";	c #6C5268",
">	c #6B5368",
",	c #695166",
"'	c #685065",
")	c #665063",
"!	c #654F62",
"~	c #644E61",
"{	c #634D60",
"]	c #614D5F",
"^	c #383838",
"/	c #473B45",
"     ",
"   .+",
"  .@@",
" .@##",
" +@$$",
"%&***",
"%&***",
"%&===",
"%&---",
"%&---",
"%&;;;",
"%&>>>",
"%&,,,",
"%&'''",
"%&)))",
"%&)))",
"%&)))",
"%&!!!",
"%&~~~",
"%&{{{",
"%&{{{",
"%&{{{",
"%&]]]",
"^////"};
